<?xml version="1.0" encoding="utf-8"?>
<!-- Generator: Adobe Illustrator 25.4.1, SVG Export Plug-In . SVG Version: 6.00 Build 0)  -->
<svg version="1.1"
	 id="svg4818" inkscape:version="1.1.1 (3bf5ae0d25, 2021-09-20)" xmlns:inkscape="http://www.inkscape.org/namespaces/inkscape" xmlns:sodipodi="http://sodipodi.sourceforge.net/DTD/sodipodi-0.dtd" xmlns:svg="http://www.w3.org/2000/svg"
	 xmlns="http://www.w3.org/2000/svg" xmlns:xlink="http://www.w3.org/1999/xlink" x="0px" y="0px" viewBox="0 0 24 24"
	 style="enable-background:new 0 0 24 24;" xml:space="preserve">
<style type="text/css">
	.st0{fill:#040404;stroke:#000000;stroke-width:0.4601;stroke-miterlimit:15.1181;stroke-opacity:0;}
</style>
<sodipodi:namedview  bordercolor="#000000" borderopacity="1" id="namedview4820" inkscape:current-layer="layer1" inkscape:cx="9.3935687" inkscape:cy="9.4877398" inkscape:document-units="px" inkscape:pagecheckerboard="0" inkscape:pageopacity="1" inkscape:pageshadow="2" inkscape:showpageshadow="false" inkscape:window-height="1017" inkscape:window-maximized="1" inkscape:window-width="1920" inkscape:window-x="-8" inkscape:window-y="-8" inkscape:zoom="21.237935" pagecolor="#ffffff" showgrid="false" units="px">
	</sodipodi:namedview>
<g id="layer1" inkscape:groupmode="layer" inkscape:label="Layer 1">
	<path id="path2097" class="st0" d="M18.7,2.2c-1.3,0-2.3,1-2.3,2.2c0,0,0,0,0,0.1l-9.4,3C6.6,6.9,6,6.6,5.3,6.6C4,6.6,3,7.6,3,8.8
		c0,0,0,0,0,0c0,1.2,1,2.2,2.3,2.2c0,0,0,0,0,0c0.2,0,0.4,0,0.6-0.1l6.2,7.9c-0.1,0.3-0.2,0.6-0.2,0.9c0,1.2,1,2.2,2.3,2.2
		c1.3,0,2.3-1,2.3-2.2c0,0,0,0,0,0c0-0.6-0.3-1.2-0.7-1.6l3.4-11.5C20.2,6.4,21,5.5,21,4.4C21,3.2,20,2.2,18.7,2.2
		C18.7,2.2,18.7,2.2,18.7,2.2L18.7,2.2z M17.2,5.9c0.1,0.1,0.2,0.2,0.3,0.2l-3.3,11.3c-0.3,0-0.6,0.1-0.9,0.2L7.2,9.9
		C7.4,9.6,7.5,9.3,7.5,9L17.2,5.9z"/>
</g>
</svg>
