<svg id="svg4818" xmlns="http://www.w3.org/2000/svg" viewBox="0 0 18.46 19.98"><defs><style>.cls-1{fill:#040404;stroke:#000;stroke-miterlimit:15.12;stroke-opacity:0;stroke-width:0.46px;}</style></defs><g id="layer1"><path id="path2097" class="cls-1" d="M18.74,2.24a2.21,2.21,0,0,0-2.27,2.15v.06l-9.41,3a2.27,2.27,0,0,0-1.8-.85A2.21,2.21,0,0,0,3,8.77H3a2.2,2.2,0,0,0,2.26,2.15h0a2.3,2.3,0,0,0,.64-.09l6.22,7.9a2.08,2.08,0,0,0-.19.88,2.26,2.26,0,0,0,4.52,0h0a2.11,2.11,0,0,0-.73-1.6L19.07,6.53A2.2,2.2,0,0,0,21,4.39a2.2,2.2,0,0,0-2.26-2.15Zm-1.58,3.7a1.91,1.91,0,0,0,.32.24l-3.3,11.27a2.31,2.31,0,0,0-.86.17L7.21,9.87A2.18,2.18,0,0,0,7.51,9Z" transform="translate(-2.77 -2.01)"/></g></svg>